<svg width="540" height="260" viewBox="0 0 540 260" fill="none" xmlns="http://www.w3.org/2000/svg">
  <defs>
    <linearGradient id="bg" x1="0" y1="0" x2="540" y2="260" gradientUnits="userSpaceOnUse">
      <stop stop-color="#DFF8FF"/>
      <stop offset="1" stop-color="#EEF6FF"/>
    </linearGradient>
    <linearGradient id="line" x1="124" y1="88" x2="448" y2="172" gradientUnits="userSpaceOnUse">
      <stop stop-color="#11B8D6"/>
      <stop offset="1" stop-color="#4B7BFF"/>
    </linearGradient>
  </defs>
  <rect x="0.5" y="0.5" width="539" height="259" rx="24" fill="url(#bg)" stroke="#C6E7F2"/>
  <circle cx="450" cy="66" r="40" fill="#E3F5FF"/>
  <circle cx="102" cy="208" r="34" fill="#E9F4FF"/>
  <rect x="48" y="54" width="176" height="152" rx="18" fill="#F8FDFF" stroke="#D8EAF2"/>
  <path d="M124 88V172" stroke="#95ADC0" stroke-width="8" stroke-linecap="round"/>
  <path d="M86 130H162" stroke="#95ADC0" stroke-width="8" stroke-linecap="round"/>
  <path d="M290 82L334 124L394 102L430 146L482 124" stroke="url(#line)" stroke-width="7" stroke-linecap="round" stroke-linejoin="round"/>
  <circle cx="334" cy="124" r="8" fill="#11B8D6"/>
  <circle cx="394" cy="102" r="8" fill="#11B8D6"/>
  <circle cx="430" cy="146" r="8" fill="#4B7BFF"/>
  <circle cx="482" cy="124" r="8" fill="#4B7BFF"/>
  <rect x="276" y="174" width="188" height="38" rx="12" fill="#FFFFFF" stroke="#DDEAF5"/>
  <text x="294" y="198" fill="#1F3F56" font-family="Segoe UI, Arial, sans-serif" font-size="14" font-weight="700">Health Insights Live</text>
</svg>
